<svg width="84" height="84" viewBox="0 0 84 84" fill="none" xmlns="http://www.w3.org/2000/svg">
<g clip-path="url(#clip0_87_1512)">
<path d="M51.702 14.5673C51.3115 14.1768 50.6783 14.1768 50.2878 14.5673L43.9239 20.9313C43.5333 21.3218 43.5333 21.955 43.9239 22.3455C44.3144 22.736 44.9475 22.736 45.3381 22.3455L50.9949 16.6887L56.6518 22.3455C57.0423 22.736 57.6755 22.736 58.066 22.3455C58.4565 21.955 58.4565 21.3218 58.066 20.9313L51.702 14.5673ZM29.6724 67.7255C29.1201 67.7255 28.6724 68.1732 28.6724 68.7255C28.6724 69.2778 29.1201 69.7255 29.6724 69.7255L29.6724 67.7255ZM49.9949 15.2745L49.9949 56.7255L51.9949 56.7255L51.9949 15.2745L49.9949 15.2745ZM38.9949 67.7255L29.6724 67.7255L29.6724 69.7255L38.9949 69.7255L38.9949 67.7255ZM49.9949 56.7255C49.9949 62.8007 45.07 67.7255 38.9949 67.7255L38.9949 69.7255C46.1746 69.7255 51.9949 63.9052 51.9949 56.7255L49.9949 56.7255Z" fill="#F5EFD7"/>
<path fill-rule="evenodd" clip-rule="evenodd" d="M53.1775 57.0135L63.7019 57.0135C64.2542 57.0135 64.7019 56.5658 64.7019 56.0135C64.7019 55.4612 64.2542 55.0135 63.7019 55.0135L53.5016 55.0135C53.43 55.6919 53.3213 56.3593 53.1775 57.0135ZM48.2435 55.0135L38.6618 55.0135C32.5867 55.0135 27.6618 50.0886 27.6618 44.0135L27.6618 30.4007L32.3187 35.0576C32.7092 35.4481 33.3424 35.4481 33.7329 35.0576C34.1234 34.6671 34.1234 34.0339 33.7329 33.6434L27.3689 27.2794C26.9784 26.8889 26.3452 26.8889 25.9547 27.2794L19.5907 33.6434C19.2002 34.0339 19.2002 34.6671 19.5907 35.0576C19.9813 35.4481 20.6144 35.4481 21.005 35.0576L25.6618 30.4007L25.6618 44.0135C25.6618 51.1932 31.4821 57.0135 38.6618 57.0135L47.7814 57.0135C47.9858 56.3671 48.1413 55.699 48.2435 55.0135Z" fill="#F5EFD7"/>
</g>
<defs>
<clipPath id="clip0_87_1512">
<rect width="84" height="84" rx="12" fill="white"/>
</clipPath>
</defs>
</svg>
