<svg width="70" height="15" viewBox="0 0 70 15" fill="none" xmlns="http://www.w3.org/2000/svg">
<path d="M69.2799 8.20711C69.6704 7.81658 69.6704 7.18342 69.2799 6.79289L62.9159 0.428932C62.5254 0.0384079 61.8922 0.0384079 61.5017 0.428932C61.1112 0.819456 61.1112 1.45262 61.5017 1.84315L67.1586 7.5L61.5017 13.1569C61.1112 13.5474 61.1112 14.1805 61.5017 14.5711C61.8922 14.9616 62.5254 14.9616 62.9159 14.5711L69.2799 8.20711ZM1.229 6.5C0.676719 6.5 0.229004 6.94772 0.229004 7.5C0.229004 8.05228 0.676719 8.5 1.229 8.5V6.5ZM68.5728 6.5L1.229 6.5V8.5L68.5728 8.5V6.5Z" fill="#CB803A"/>
</svg>
