<svg width="84" height="85" viewBox="0 0 84 85" fill="none" xmlns="http://www.w3.org/2000/svg">
<g clip-path="url(#clip0_103_145)">
<rect y="0.5" width="84" height="84" rx="12" fill="#CB803A"/>
<path d="M12 1.5H72C78.0751 1.5 83 6.42487 83 12.5V72.5C83 78.5751 78.0751 83.5 72 83.5H12C5.92487 83.5 1 78.5751 1 72.5V12.5C1 6.42487 5.92487 1.5 12 1.5Z" fill="#CB803A" stroke="#CB803A" stroke-width="2"/>
<path d="M51.702 15.0674C51.3115 14.6769 50.6783 14.6769 50.2878 15.0674L43.9239 21.4314C43.5333 21.8219 43.5333 22.4551 43.9239 22.8456C44.3144 23.2361 44.9475 23.2361 45.3381 22.8456L50.9949 17.1887L56.6518 22.8456C57.0423 23.2361 57.6755 23.2361 58.066 22.8456C58.4565 22.4551 58.4565 21.8219 58.066 21.4314L51.702 15.0674ZM29.6724 68.2256C29.1201 68.2256 28.6724 68.6733 28.6724 69.2256C28.6724 69.7779 29.1201 70.2256 29.6724 70.2256L29.6724 68.2256ZM49.9949 15.7745L49.9949 57.2256L51.9949 57.2256L51.9949 15.7745L49.9949 15.7745ZM38.9949 68.2256L29.6724 68.2256L29.6724 70.2256L38.9949 70.2256L38.9949 68.2256ZM49.9949 57.2256C49.9949 63.3007 45.07 68.2256 38.9949 68.2256L38.9949 70.2256C46.1746 70.2256 51.9949 64.4053 51.9949 57.2256L49.9949 57.2256Z" fill="#F5EFD7"/>
<path fill-rule="evenodd" clip-rule="evenodd" d="M53.1775 57.5135L63.7019 57.5135C64.2542 57.5135 64.7019 57.0658 64.7019 56.5135C64.7019 55.9613 64.2542 55.5135 63.7019 55.5135L53.5016 55.5135C53.43 56.192 53.3213 56.8593 53.1775 57.5135ZM48.2435 55.5135L38.6618 55.5135C32.5867 55.5135 27.6618 50.5887 27.6618 44.5135L27.6618 30.9008L32.3187 35.5576C32.7092 35.9482 33.3424 35.9482 33.7329 35.5576C34.1234 35.1671 34.1234 34.534 33.7329 34.1434L27.3689 27.7795C26.9784 27.3889 26.3452 27.3889 25.9547 27.7795L19.5907 34.1434C19.2002 34.5339 19.2002 35.1671 19.5907 35.5576C19.9813 35.9482 20.6144 35.9482 21.005 35.5576L25.6618 30.9008L25.6618 44.5135C25.6618 51.6932 31.4821 57.5135 38.6618 57.5135L47.7814 57.5135C47.9858 56.8672 48.1413 56.1991 48.2435 55.5135Z" fill="#F5EFD7"/>
</g>
<defs>
<clipPath id="clip0_103_145">
<rect y="0.5" width="84" height="84" rx="12" fill="white"/>
</clipPath>
</defs>
</svg>
