<svg width="70" height="15" viewBox="0 0 70 15" fill="none" xmlns="http://www.w3.org/2000/svg">
<path d="M69.2796 8.20711C69.6702 7.81658 69.6702 7.18342 69.2796 6.79289L62.9157 0.428932C62.5251 0.0384078 61.892 0.0384078 61.5015 0.428932C61.1109 0.819457 61.1109 1.45262 61.5015 1.84315L67.1583 7.5L61.5015 13.1569C61.1109 13.5474 61.1109 14.1805 61.5015 14.5711C61.892 14.9616 62.5251 14.9616 62.9157 14.5711L69.2796 8.20711ZM1.22876 6.5C0.676475 6.5 0.22876 6.94772 0.22876 7.5C0.22876 8.05228 0.676475 8.5 1.22876 8.5V6.5ZM68.5725 6.5L1.22876 6.5V8.5L68.5725 8.5V6.5Z" fill="#CB803A"/>
</svg>
