<svg width="1128" height="836" viewBox="0 0 1128 836" fill="none" xmlns="http://www.w3.org/2000/svg">
<path d="M1118.53 821.287H43.5362C16.7242 795.345 -6.60067 759.787 2.86451 722.993C15.3458 674.486 77.3544 656.846 87.5227 607.68C97.5172 559.355 50.7685 517.327 49.4685 467.774C48.6329 435.913 67.6692 406.374 92.2518 389.72C116.834 373.062 146.196 367.365 174.947 364.981C186.384 364.034 197.855 363.561 209.321 363.561C237.003 363.561 264.681 366.318 291.918 371.799C328.91 379.246 365.937 391.757 403.182 391.757C409.747 391.757 416.313 391.371 422.896 390.498C440.252 388.192 457.596 382.29 471.459 370.513C489.791 354.945 500.343 330.739 507.81 306.555C528.365 239.975 530.996 165.604 565.013 106.149C604.157 37.7274 679.557 3.12994 753.358 3.12994C762.494 3.12994 771.599 3.65961 780.617 4.71918C862.461 14.3597 937.151 61.1035 1002.41 116.545C1066.15 170.706 1125.43 237.556 1150.01 322.18C1174.58 406.8 1155.46 511.743 1088.59 561.083C1071.95 573.36 1050.51 586.305 1050.44 608.422C1050.41 615.991 1053.14 623.2 1055.9 630.126C1075.52 679.306 1099.73 726.719 1111.96 778.739C1115.21 792.552 1117.46 806.883 1118.53 821.287ZM145.787 526.977V769.22H271.416V526.977H145.787Z" fill="#E7F1B5"/>
<path d="M1139.25 392.23C1108.76 415.967 1068.74 434.145 1031.51 447.472C1020.8 407.073 1011.39 366.427 1004.39 325.372C1033.49 319.383 1065.27 308.518 1095.22 288.178C1140.73 257.271 1201.3 143.109 1216.46 113.588C1217.22 112.038 1217.98 110.492 1218.74 108.95L1218.63 108.907C1218.63 108.907 1230.38 77.9049 1231.95 73.2323C1235.9 61.4899 1240.72 32.4424 1240.72 32.4424C1240.72 32.4424 1249.32 29.6154 1250.78 49.2613C1252.23 68.9159 1255.63 63.0706 1255.63 63.0706C1255.63 63.0706 1291.39 9.46994 1301.62 11.7324C1305.44 12.5793 1301.54 24.8384 1295.46 31.8691C1289.37 38.9041 1283.07 49.9127 1283.07 49.9127C1283.07 49.9127 1317.94 11.4938 1327.3 16.0318C1327.3 16.0318 1331.94 18.9846 1320.79 30.4013C1305.32 46.217 1295.17 60.6345 1295.17 60.6345C1295.17 60.6345 1330.51 29.9976 1335.1 32.4424C1342.73 36.5028 1306.93 67.7346 1301.58 78.5519C1301.58 78.5519 1328.04 53.6777 1329.53 60.6519C1330.96 67.3134 1300.74 93.5513 1287.03 128.679C1286.02 132.118 1284.73 136.07 1283.19 140.473L1283.23 140.456C1283.23 140.456 1247.05 308.327 1139.25 392.23Z" fill="#F9A987"/>
<path d="M873.614 201.708C873.614 228.363 854.201 249.971 830.248 249.971C806.296 249.971 786.878 228.363 786.878 201.708C786.878 175.053 806.296 153.444 830.248 153.444C854.201 153.444 873.614 175.053 873.614 201.708Z" fill="#040606"/>
<path d="M797.826 220.594C797.826 220.594 860.091 169.564 820.472 57.5989C794.693 -15.2481 642.883 192.054 797.826 220.594Z" fill="#040606"/>
<path d="M642.639 94.5155C649.584 50.7552 693.298 -22.4132 770.977 22.6238C795.4 36.785 805.825 62.6234 810.787 89.452C814.247 108.177 807.59 292.069 807.59 292.069C801.024 365.758 689.983 383.246 686.171 293.519L690.741 232.089C634.471 214.071 634.837 143.643 642.639 94.5155Z" fill="#F9A987"/>
<path d="M690.74 232.089C690.74 232.089 722.522 242.685 782.477 205.538C782.477 205.538 748.779 254.718 687.782 274.824L690.74 232.089Z" fill="#A0575E"/>
<path d="M792.468 154.977C792.468 172.791 777.978 187.234 760.102 187.234C742.227 187.234 727.737 172.791 727.737 154.977C727.737 137.16 742.227 122.716 760.102 122.716C777.978 122.716 792.468 137.16 792.468 154.977Z" fill="#F7987A"/>
<path d="M675.824 132.795C675.824 114.982 661.334 100.534 643.459 100.534C642.879 100.534 642.304 100.552 641.734 100.582C638.91 120.688 637.569 143.665 640.771 164.935C641.659 165.009 642.553 165.057 643.459 165.057C661.334 165.057 675.824 150.613 675.824 132.795Z" fill="#F7987A"/>
<path d="M846.394 116.424C849.505 129.187 841.645 142.045 828.837 145.142C816.033 148.242 803.133 140.408 800.027 127.645C796.916 114.882 804.775 102.02 817.579 98.9234C830.388 95.8228 843.288 103.657 846.394 116.424Z" fill="#F9A987"/>
<path d="M812.151 128.687C812.377 126.173 813.427 123.902 814.913 121.904C816.394 119.889 818.481 118.182 821.099 117.175C823.735 116.207 826.95 116.419 829.316 117.753C831.782 118.955 833.35 121.118 834.269 123.385C831.83 122.651 829.869 121.769 827.961 121.587C826.092 121.361 824.48 121.431 822.842 122.082C819.492 123.268 816.224 125.947 812.151 128.687Z" fill="#040606"/>
<path d="M687.09 153.427C690.105 154.725 692.553 156.254 695.05 157.249C697.515 158.287 699.794 158.964 701.959 158.938C704.124 158.942 706.307 158.313 708.699 157.223C711.073 156.098 713.465 154.522 716.24 152.832C715.709 156.037 714.127 158.973 711.687 161.322C709.322 163.706 705.758 165.46 701.942 165.43C698.121 165.434 694.671 163.719 692.27 161.47C689.734 159.298 688.07 156.48 687.09 153.427Z" fill="#040606"/>
<path d="M695.298 83.8501C695.995 86.5946 695.663 89.565 694.936 92.3095C694.217 95.0931 693.006 97.6725 691.616 100.113C688.767 104.985 685.195 109.237 680.916 112.928L680.502 109.541C685.138 112.772 689.699 116.133 693.925 120.041C688.466 118.183 683.339 115.777 678.289 113.245L676.002 112.099L677.875 109.858C679.522 107.891 681.165 105.767 682.798 103.735C684.389 101.646 686.035 99.618 687.53 97.4945C690.575 93.2388 693.472 89.1133 695.298 83.8501Z" fill="#040606"/>
<path d="M721.515 91.024C721.38 95.1625 721.489 99.4572 722.108 103.34C722.705 107.239 724.304 110.761 726.469 111.265C728.373 112.116 731.697 110.179 734.45 107.378C737.208 104.59 739.826 101.199 742.179 97.8288L742.244 97.7289C742.902 96.7866 744.196 96.5564 745.137 97.2122C745.943 97.768 746.23 98.7971 745.882 99.6699C744.192 103.947 742.044 107.89 738.942 111.512C737.382 113.31 735.587 115.012 733.213 116.376C730.917 117.687 727.458 118.556 724.338 117.383C721.267 116.315 719.058 113.688 718.039 111.247C716.971 108.759 716.558 106.327 716.423 103.965C716.148 99.2314 716.819 94.7976 718.065 90.3942C718.331 89.4606 719.302 88.9178 720.239 89.1784C721.032 89.4042 721.542 90.1381 721.515 90.9241V91.024Z" fill="#040606"/>
<path d="M655.29 83.5635C655.155 87.4805 655.138 91.4974 655.456 95.2364C655.648 97.0993 655.918 98.9276 656.454 100.4C656.994 101.954 657.726 102.671 658.113 102.649C658.366 102.797 659.455 102.536 660.706 101.459C661.96 100.487 663.154 99.0622 664.326 97.6074C666.609 94.6371 668.809 91.2759 670.865 87.9625L670.913 87.8845C671.519 86.9117 672.8 86.6121 673.78 87.2157C674.603 87.7238 674.947 88.7182 674.669 89.6041C673.375 93.6731 671.702 97.4816 669.301 101.138C668.112 102.975 666.726 104.734 664.879 106.388C663.925 107.187 662.84 107.969 661.424 108.542C660.039 109.115 658.14 109.419 656.371 108.889C654.632 108.412 653.134 107.226 652.245 105.98C651.335 104.729 650.812 103.466 650.485 102.263C649.836 99.8569 649.683 97.6162 649.731 95.4319C649.818 91.0632 650.603 86.9768 651.844 82.9121C652.127 81.9828 653.112 81.4575 654.044 81.7398C654.824 81.9786 655.321 82.7037 655.295 83.481L655.29 83.5635Z" fill="#040606"/>
<path d="M749.585 73.8011C749.11 76.867 744.296 78.6562 738.829 77.8051C733.357 76.9409 729.314 73.762 729.78 70.7005C730.259 67.6346 735.073 65.8455 740.545 66.7009C746.017 67.5608 750.06 70.7353 749.585 73.8011Z" fill="#040606"/>
<path d="M673.676 62.3585C674.743 65.2898 671.397 69.1244 666.191 70.9222C660.985 72.7244 655.901 71.808 654.829 68.8811C653.757 65.9585 657.112 62.124 662.314 60.3219C667.516 58.5197 672.604 59.4316 673.676 62.3585Z" fill="#040606"/>
<path d="M659.421 48.9832C659.421 48.9832 706.825 59.1969 770.977 22.6236C770.977 22.6236 747.795 146.996 810.021 102.297C810.021 102.297 818.66 95.7008 827.948 98.4453L830.401 99.2356C830.401 99.2356 828.989 26.6232 776.849 8.67963C724.705 -9.26396 687.865 -1.04341 659.421 48.9832Z" fill="#040606"/>
<path d="M342.167 409.062L365.894 335.638L420.826 354.302L418.33 417.774L342.167 409.062Z" fill="#F9A987"/>
<path d="M1201.41 133.295C1201.41 133.295 1135 267.177 1078.05 293.675C1021.24 320.109 874.106 280.144 833.908 281.881L833.903 281.816L808.038 281.251C798.484 296.515 763.941 306.616 738.938 304.31C703.249 301.014 691.094 285.889 687.634 273.652L643.437 270.364L643.432 270.377C621.845 268.501 585.555 272.657 552.052 307.615C539.283 320.942 479.358 389.972 409.525 480.264L426.987 418.564L331.847 407C256.264 550.548 289.662 662.101 334.622 662.101C412.157 662.101 533.567 546.979 600.206 477.002L616.966 657.372L874.015 666.126L851.482 450.204C888.257 454.92 1075.1 476.438 1140.25 436.269C1212.65 391.622 1277.67 198.646 1277.67 198.646L1201.41 133.295Z" fill="#F03E23"/>
<path d="M389.646 546.358C388.004 545.945 393.863 517.449 404.363 483.186C414.823 448.897 425.902 421.995 427.501 422.564C429.161 423.15 420.766 450.869 410.349 485.006C399.897 519.117 391.354 546.796 389.646 546.358Z" fill="#040606"/>
<path d="M409.735 276.739C414.226 272.036 427.401 257.693 427.444 251.283C427.514 239.944 408.184 260.316 399.784 269.7C403.317 271.949 406.711 274.255 409.735 276.739Z" fill="#EE8362"/>
<path d="M328.579 183.604C331.311 177.646 339.223 176.338 343.723 181.111C364.478 203.137 411.024 258.552 434.415 296.077C467.582 349.291 489.552 384.171 489.552 384.171L586.644 467.752C586.644 467.752 545.587 490.16 509.157 457.673C481.592 433.09 468.758 389.573 468.758 389.573C468.758 389.573 384.296 238.333 331.041 194.456C327.83 191.811 326.85 187.377 328.579 183.604Z" fill="#4E3725"/>
<path d="M367.014 373.957C361.062 350.103 360.631 311.437 360.343 297.006C360.091 284.248 368.395 278.724 373.744 275.649C395.863 262.943 440.797 253.745 442.474 259.999C443.855 265.145 405.051 277.664 405.051 277.664C405.051 277.664 453.331 269.748 443.825 280.704C438.763 286.545 411.625 288.82 411.625 288.82C411.625 288.82 441.089 291.93 438.837 296.238C434.846 303.876 410.601 302.817 410.601 302.817C410.601 302.817 422.264 312.592 425.654 337.31C428.115 355.266 391.136 391.032 391.136 391.032L367.014 373.957Z" fill="#F9A987"/>
<path d="M387.441 307.984C387.158 306.899 392.408 304.693 399.204 304.163C402.563 303.854 405.595 303.98 407.447 303.824C409.281 303.781 410.052 303.047 410.658 303.255C410.897 303.368 411.01 303.833 410.692 304.571C410.374 305.331 409.442 306.121 408.27 306.647C405.896 307.702 402.846 307.989 399.57 308.31C393.044 308.814 387.729 309.131 387.441 307.984Z" fill="#040606"/>
<path d="M1055.96 357.038C1054.12 357.09 1053.01 343.424 1045.98 328.585C1039.17 313.634 1029.44 303.954 1030.67 302.582C1031.2 301.974 1034.43 303.633 1038.65 307.593C1042.87 311.523 1047.9 317.92 1051.66 325.962C1055.38 334.014 1057.02 341.978 1057.3 347.728C1057.59 353.499 1056.77 357.029 1055.96 357.038Z" fill="#040606"/>
<path d="M1086.47 328.177C1085.14 329.406 1076.36 321.724 1064.14 314.646C1051.98 307.446 1040.98 303.542 1041.41 301.792C1041.7 300.176 1054.2 301.54 1067.31 309.265C1080.46 316.913 1087.74 327.139 1086.47 328.177Z" fill="#040606"/>
<path d="M882.523 671.537C882.98 671.125 886.248 674.221 892.513 679.341C898.79 684.413 908.227 691.496 921.249 697.84C927.596 700.902 935.225 703.833 942.383 702.161C945.685 701.358 949.07 699.082 950.922 696.042C952.865 693.011 952.847 689.594 950.813 686.767C948.787 683.966 944.661 681.916 940.104 680.713C935.613 679.506 930.232 678.92 924.991 678.325C914.409 677.248 903.308 677.091 891.972 678.077L891.868 669.231C900.058 669.687 908.702 669.831 917.472 669.566C923.967 669.379 930.376 668.958 936.68 668.367C942.954 667.72 949.279 667.073 954.947 665.879C960.607 664.641 965.778 662.674 969.424 659.352C972.857 656.386 974.761 651.409 974.421 647.154C974.077 642.798 971.637 640.036 967.303 638.855C965.172 638.251 962.741 637.947 960.21 637.83C957.696 637.691 955.222 637.543 952.778 637.635C943.006 637.717 933.927 639.441 925.945 641.925C909.922 646.945 898.329 654.744 891.075 660.781C883.764 666.843 880.249 670.912 879.674 670.452C879.268 670.161 881.856 665.323 888.709 658.214C895.497 651.157 907.099 642.077 923.919 635.928C932.297 632.879 941.969 630.643 952.555 630.213C955.2 630.035 957.892 630.109 960.637 630.183C963.347 630.248 966.27 630.474 969.376 631.255C972.443 632.046 975.846 633.574 978.386 636.423C980.917 639.211 982.376 642.867 982.66 646.407C983.278 653.481 980.656 660.607 975.201 665.675C969.982 670.521 963.268 672.97 956.864 674.438C950.355 675.862 944.051 676.522 937.551 677.23C931.056 677.873 924.442 678.32 917.742 678.516C908.693 678.789 899.779 678.616 891.332 678.086L891.227 669.24C903.165 668.28 914.836 668.571 925.923 669.874C931.487 670.608 936.776 671.22 942.352 672.81C947.72 674.425 953.44 676.883 957.287 682.259C959.134 684.943 960.123 688.178 960.062 691.444C960.018 694.714 958.794 697.68 957.208 700.09C953.945 704.914 949.092 707.876 943.886 708.992C938.775 709.995 933.94 709.27 929.74 708.006C925.527 706.725 921.854 704.914 918.517 703.082C905.247 695.717 896.081 687.64 890.334 681.703C884.592 675.715 882.135 671.876 882.523 671.537Z" fill="#040606"/>
<path d="M616.966 645.391L597.479 808.299H980.033L874.015 654.141L616.966 645.391Z" fill="#9C753A"/>
<path d="M616.966 645.391L874.755 653.355L885.02 672.241L783.184 673.813L833.707 808.368L597.479 808.299L616.966 645.391Z" fill="#FAF8EA"/>
<path d="M1140.65 836.234H25.7269V808.676H1140.65V836.234Z" fill="#DCBD39"/>
<path d="M368.691 780.593H825.552V809.514H368.691V780.593Z" fill="#040606"/>
<path d="M622.795 218.292C622.96 218.427 622.254 219.734 620.769 222.083C619.98 223.291 619.048 224.715 617.963 226.37C616.909 228.098 615.846 230.178 614.548 232.449C609.603 241.616 603.386 255.682 600.728 274.129C598.245 292.42 598.864 315.297 608.087 338.044C612.587 349.426 619.274 360.382 627.983 370.526C636.657 380.658 647.24 390.962 653.792 404.672C660.288 418.169 663.372 432.96 661.799 447.251C660.967 454.356 658.828 461.356 654.973 467.344C651.174 473.411 645.44 477.91 639.724 480.993C633.969 484.137 628.162 486.313 622.812 488.662C617.466 490.985 612.456 493.595 607.769 496.405C598.398 502.024 590.364 508.434 583.725 514.917C577.133 521.366 572.28 528.306 570.485 535.197C568.533 542.054 570.206 548.351 572.715 552.659C575.229 557.045 578.619 559.364 581.045 560.432C583.515 561.483 585.014 561.605 584.988 561.891C584.997 562.026 583.454 562.356 580.618 561.618C577.839 560.862 573.787 558.621 570.65 553.953C567.54 549.45 565.213 542.267 567.082 534.381C568.764 526.53 573.865 518.782 580.562 511.83C587.271 504.877 595.409 498.046 605.046 491.997C609.86 488.979 615.049 486.161 620.56 483.655C626.04 481.149 631.682 478.922 636.906 475.977C642.125 473.046 646.769 469.272 649.928 464.144C653.138 459.063 654.999 452.944 655.704 446.556C657.064 433.746 654.188 419.858 648.163 407.403C642.19 394.832 632.235 384.987 623.309 374.482C614.325 363.908 607.246 352.096 602.711 340.137C593.348 316.122 593.213 292.29 596.354 273.439C599.683 254.418 606.745 240.201 612.448 231.22C613.938 228.992 615.188 226.973 616.425 225.332C617.71 223.786 618.821 222.457 619.758 221.328C621.592 219.2 622.625 218.153 622.795 218.292Z" fill="#040606"/>
<path d="M411.935 628.433C412.61 627.725 417.163 638.038 423.767 655.583L425.248 659.508L420.996 658.792C408.11 656.625 392.247 652.082 375.753 644.974C370.843 642.872 365.28 639.945 362.295 634.508C360.805 631.868 360.047 628.598 360.679 625.462C361.272 622.331 363.228 619.595 365.663 617.945C368.098 616.208 370.935 615.665 373.492 615.583L375.396 615.609L376.951 615.748C377.997 615.835 379.033 615.922 380.057 616.004C384.327 616.313 388.33 617.481 391.602 618.657C398.22 621.076 403.282 623.434 406.776 625.145C410.488 626.974 412.283 628.176 411.935 628.433C411.59 628.693 409.403 628.346 405.905 627.412C401.797 626.218 396.556 624.694 390.282 622.87C386.971 621.993 383.591 621.241 379.722 621.167C378.707 621.137 377.683 621.107 376.637 621.076L375.025 621.011L373.71 621.068C371.998 621.207 370.264 621.624 368.991 622.64C366.338 624.555 365.632 628.224 367.641 631.507C369.558 634.934 373.583 637.287 378.236 639.246C394.255 646.163 409.774 651.097 421.868 653.95L419.093 657.159C414.096 640.544 411.264 629.145 411.935 628.433Z" fill="#040606"/>
<path d="M712.424 628.433C713.095 629.145 710.267 640.544 705.27 657.163L702.495 653.95C714.572 651.101 730.064 646.177 746.057 639.276C747.29 638.772 748.431 638.251 749.424 637.717C750.509 637.235 751.45 636.605 752.374 635.976C754.191 634.712 755.768 633.227 756.687 631.568C758.726 628.294 758.059 624.615 755.428 622.674C752.783 620.638 749.011 620.872 745.037 621.437C741.173 621.975 737.527 622.774 734.211 623.534C720.928 626.73 712.742 629.292 712.424 628.433C712.132 627.681 719.747 623.656 733.026 619.283C736.363 618.223 740.049 617.142 744.188 616.33C746.331 615.978 748.292 615.505 750.997 615.583C753.555 615.687 756.369 616.286 758.804 618.015C761.227 619.691 763.148 622.449 763.705 625.584C764.302 628.724 763.518 631.981 762.006 634.599C759.009 640.014 753.433 642.898 748.544 645C732.072 652.095 716.236 656.629 703.362 658.796L699.11 659.508L700.591 655.583C707.2 638.038 711.748 627.725 712.424 628.433Z" fill="#040606"/>
<path d="M663.059 780.984H466.131C436.698 780.984 412.836 757.199 412.836 727.856V599.976H716.353V727.856C716.353 757.199 692.492 780.984 663.059 780.984Z" fill="#7FBDB5"/>
<path d="M717.725 603.702H410.453V597.362H717.725V603.702Z" fill="#CBEDEA"/>
<path d="M145.787 769.22H271.416V526.976H145.787V769.22Z" fill="#9ADCC7"/>
<path d="M262.973 763.123H154.228V603.61H199.005L158.832 657.35C157.896 658.601 158.153 660.373 159.412 661.302C159.917 661.68 160.514 661.862 161.102 661.862C161.965 661.862 162.819 661.471 163.376 660.724L206.076 603.61H219.477L158.493 683.045C157.543 684.287 157.778 686.059 159.02 687.006C159.534 687.396 160.139 687.588 160.741 687.588C161.595 687.588 162.435 687.205 162.993 686.48L226.613 603.61H262.973V763.123Z" fill="#ABE2D0"/>
<path d="M226.613 603.61H219.477L253.118 559.785C253.68 559.06 254.521 558.678 255.371 558.678C255.972 558.678 256.577 558.864 257.092 559.26C258.338 560.206 258.573 561.978 257.619 563.22L226.613 603.61Z" fill="#ABE2D0"/>
<path d="M160.74 687.587C160.139 687.587 159.534 687.396 159.019 687.006C157.778 686.059 157.543 684.287 158.492 683.045L219.476 603.61H226.612L162.993 686.48C162.435 687.205 161.594 687.587 160.74 687.587Z" fill="#B1E4D4"/>
<path d="M206.076 603.61H199.005L241.626 546.592C242.183 545.85 243.037 545.455 243.904 545.455C244.493 545.455 245.085 545.637 245.595 546.015C246.849 546.948 247.106 548.716 246.174 549.966L206.076 603.61Z" fill="#ABE2D0"/>
<path d="M161.102 661.862C160.514 661.862 159.917 661.68 159.412 661.302C158.153 660.373 157.896 658.601 158.832 657.35L199.005 603.611H206.075L163.376 660.724C162.819 661.471 161.965 661.862 161.102 661.862Z" fill="#B1E4D4"/>
<path d="M137.63 585.18C137.63 585.18 121.181 552.255 114.811 524.536C111.089 508.334 94.1901 436.377 88.2033 445.158C82.2164 453.943 94.7007 495.132 100.591 513.888C105.337 529 121.326 574.146 121.326 574.146C121.326 574.146 74.72 482.882 60.5558 480.989C46.392 479.1 70.3581 513.958 75.1626 521.053C91.1985 544.755 101.884 560.154 115.972 578.219C115.972 578.219 17.1138 482.374 6.79424 496.566C-3.52571 510.757 44.3923 530.707 66.7469 547.174C83.8789 559.794 120.91 590.413 120.91 590.413C120.91 590.413 115.623 581.554 96.4878 569.065C67.6867 550.266 17.5172 527.45 14.5577 537.125C10.5418 550.253 38.6263 554.713 62.6234 563.91C116.074 584.386 122.252 603.016 122.252 603.016L137.63 585.18Z" fill="#1E4E3D"/>
<path d="M157.669 586.427C157.669 586.427 144.018 567.194 121.47 583.1C98.9214 599.012 113.242 627.456 120.182 635.268C127.12 643.08 190.152 708.037 198.586 723.913C207.021 739.79 235.321 782.082 244.497 778.773C253.672 775.464 246.697 764.451 242.946 736.854C239.199 709.261 226.342 678.976 209.635 658.544C192.927 638.112 157.669 586.427 157.669 586.427Z" fill="#F4701E"/>
<path d="M166.679 602.403C163.625 602.863 160.475 604.766 157.878 606.364C155.234 608.001 152.711 609.829 150.158 611.596C145.357 614.91 140.223 618.145 134.299 618.866C132.633 619.066 131.191 620.143 131.191 621.962C131.191 623.478 132.62 625.258 134.299 625.058C141.024 624.242 146.773 621.359 152.284 617.55C154.833 615.783 157.325 613.933 159.922 612.235C161.285 611.349 162.688 610.528 164.095 609.716C165.607 608.843 167.28 608.218 168.739 607.276C171.423 605.556 169.598 601.965 166.679 602.403Z" fill="#CC531E"/>
<path d="M187.446 629.931C185.991 629.753 184.484 630.6 183.234 631.26C182.035 631.894 180.872 632.571 179.705 633.262C177.526 634.556 175.344 635.841 173.192 637.174C168.7 639.949 164.217 642.72 159.73 645.495C156.323 647.601 159.464 653.003 162.875 650.867C167.415 648.035 171.95 645.199 176.485 642.364C178.642 641.018 180.768 639.628 182.898 638.243C185.133 636.792 188.483 635.12 189.385 632.471C189.851 631.103 188.649 630.079 187.446 629.931Z" fill="#CC531E"/>
<path d="M210.423 662.935C206.106 665.401 202.081 668.372 197.968 671.16C195.894 672.567 193.82 673.974 191.751 675.389C189.655 676.831 187.285 678.186 185.486 679.992C183.038 682.446 186.122 686.094 189.076 684.626C191.193 683.575 193.093 681.929 195.027 680.574C197.144 679.093 199.266 677.626 201.388 676.158C205.553 673.27 209.883 670.508 213.665 667.125C215.965 665.071 213.02 661.458 210.423 662.935Z" fill="#CC531E"/>
<path d="M232.202 704.141C230.203 704.593 228.382 706.013 226.656 707.073C225.062 708.054 223.498 709.075 221.929 710.091C220.409 711.077 218.884 712.062 217.364 713.048C215.538 714.229 213.556 715.315 211.905 716.726C210.768 717.703 210.816 719.575 211.67 720.678C212.628 721.916 214.192 722.12 215.564 721.455C217.324 720.6 218.949 719.28 220.579 718.198C222.134 717.165 223.689 716.131 225.245 715.098C226.761 714.095 228.277 713.091 229.767 712.049C231.61 710.764 233.653 709.587 234.995 707.763C235.57 706.986 235.361 705.718 234.803 705.023C234.167 704.228 233.204 703.916 232.202 704.141Z" fill="#CC531E"/>
<path d="M283.806 780.028C283.806 780.028 367.597 696.507 311.736 689.546C255.876 682.589 227.946 733.628 227.946 733.628C227.946 733.628 288.463 652.43 234.929 643.15C181.395 633.865 190.705 789.309 190.705 789.309L283.806 780.028Z" fill="#8CB071"/>
<path d="M192.021 773.067C192.021 773.067 217.625 622.271 154.785 626.909C91.9388 631.546 110.562 698.826 110.562 698.826C110.562 698.826 89.6128 608.348 50.0455 631.546C10.4788 654.749 68.6653 726.671 68.6653 726.671C68.6653 726.671 -10.4687 689.546 1.16825 722.029C12.8069 754.507 80.3036 789.309 80.3036 789.309L192.021 773.067Z" fill="#20653E"/>
<path d="M84.0493 811.447H264.132C290.032 811.447 311.031 790.52 311.031 764.703H37.1529C37.1529 790.52 58.1479 811.447 84.0493 811.447Z" fill="#DFBCB5"/>
<path d="M127.461 774.118C127.461 756.079 142.131 720.365 160.227 720.365C178.324 720.365 192.993 756.079 192.993 774.118C192.993 792.157 178.324 806.779 160.227 806.779C142.131 806.779 127.461 792.157 127.461 774.118Z" fill="#ECDCD5"/>
<path d="M205.248 774.118C205.248 756.079 219.917 720.365 238.014 720.365C256.107 720.365 270.78 756.079 270.78 774.118C270.78 792.157 256.107 806.779 238.014 806.779C219.917 806.779 205.248 792.157 205.248 774.118Z" fill="#ECDCD5"/>
<path d="M283.035 774.118C283.035 756.079 297.704 720.365 315.801 720.365C333.894 720.365 348.568 756.079 348.568 774.118C348.568 792.157 333.894 806.779 315.801 806.779C297.704 806.779 283.035 792.157 283.035 774.118Z" fill="#ECDCD5"/>
<path d="M351.029 763.574H125.25C119.566 763.574 114.961 768.164 114.961 773.827C114.961 777.358 114.908 780.892 114.902 784.423C114.898 786.117 114.903 787.815 114.934 789.513C114.995 793.169 119.225 791.892 121.623 791.892C124.532 791.892 127.057 793.881 127.726 796.699C129.782 805.346 137.527 811.447 146.437 811.447H174.22C183.134 811.447 190.875 805.346 192.932 796.699C193.603 793.881 196.129 791.892 199.035 791.892H199.432C202.342 791.892 204.869 793.881 205.535 796.699C207.592 805.346 215.333 811.447 224.247 811.447H252.029C260.943 811.447 268.684 805.346 270.741 796.699C271.412 793.881 273.939 791.892 276.844 791.892H277.241C280.147 791.892 282.674 793.881 283.344 796.699C285.401 805.346 293.142 811.447 302.056 811.447H329.838C338.752 811.447 346.494 805.346 348.55 796.699C349.221 793.881 351.748 791.892 354.654 791.892C356.257 791.892 358.453 791.923 360.043 791.897C360.779 791.884 361.319 791.931 361.302 791.058C361.276 789.23 361.319 785.27 361.319 783.342C361.315 780.172 361.315 776.997 361.315 773.827C361.315 768.164 356.71 763.574 351.029 763.574Z" fill="#414992"/>
<path d="M125.956 786.069C201.096 784.249 276.265 785.821 351.403 783.997C353.63 783.945 353.634 780.493 351.403 780.549C276.265 782.369 201.096 780.797 125.956 782.621C123.734 782.673 123.725 786.125 125.956 786.069Z" fill="white"/>
</svg>
