<svg width="340" height="330" viewBox="0 0 340 330" fill="none" xmlns="http://www.w3.org/2000/svg">
<path d="M281.1 201.79C251.589 175.4 212.693 159.393 170.031 159.393C127.369 159.393 89.2137 175.153 59.8256 201.049C25.0045 231.642 3.08691 276.45 3.08691 326.449C3.08691 345.176 6.17389 363.099 11.8539 379.91H59.023C59.023 324.781 109.156 280.096 170.957 280.096C232.758 280.096 282.891 324.781 282.891 379.91H328.146C333.826 363.099 336.913 345.176 336.913 326.449C336.913 276.882 315.304 232.383 281.1 201.79Z" fill="#CB803A" stroke="#CB803A" stroke-linecap="round" stroke-linejoin="round"/>
<path d="M170.957 270.702C74.3961 270.702 59.0229 324.781 59.0229 379.91H282.891C282.891 324.781 265.418 270.702 170.957 270.702Z" fill="#F5EFD7" stroke="#CB803A" stroke-linecap="round" stroke-linejoin="round"/>
<path d="M59.1467 37.4533C59.1467 28.8007 66.1233 21.8169 74.7668 21.8169C79.706 21.8169 84.0895 24.1036 86.9295 27.6882C90.5722 26.0813 94.4 24.7216 98.3514 23.5474C95.0792 11.7428 84.2747 3.09021 71.4329 3.09021C55.998 3.09021 43.4648 15.6364 43.4648 31.0875C43.4648 40.9761 48.5892 49.6905 56.3684 54.6348C57.9737 51.6682 59.8258 48.9488 61.8632 46.3531C60.1345 43.8191 59.085 40.7907 59.085 37.4533H59.1467Z" fill="#CB803A" stroke="#CB803A" stroke-linecap="round" stroke-linejoin="round"/>
<path d="M74.7666 21.8169C66.1231 21.8169 59.1465 28.8008 59.1465 37.4533C59.1465 40.7289 60.1961 43.8192 61.9248 46.3531C68.3457 38.3186 76.8658 32.1382 86.9293 27.6883C84.0893 24.1036 79.7058 21.8169 74.7666 21.8169Z" fill="#CB803A" stroke="#CB803A" stroke-linecap="round" stroke-linejoin="round"/>
<path d="M293.695 69.2824C290.917 64.029 287.645 59.1465 284.002 54.6348C273.26 41.2851 258.998 30.9021 242.266 23.5474C236.71 21.0752 230.906 18.9739 224.856 17.1815C208.063 12.2372 189.541 9.70325 169.969 9.70325C150.398 9.70325 132.987 12.0518 116.626 16.6871C109.958 18.603 103.599 20.8898 97.5487 23.5474C80.8172 30.9021 66.6171 41.2851 55.8744 54.6966C52.417 58.9611 49.33 63.5964 46.6752 68.4789C38.6491 83.1883 34.1421 125.277 34.1421 145.672C34.1421 220.764 94.9556 257.043 169.969 257.043C244.983 257.043 305.796 220.764 305.796 145.672C305.796 125.648 301.413 83.8064 293.634 69.2824H293.695Z" fill="#F5EFD7" stroke="#CB803A" stroke-linecap="round" stroke-linejoin="round"/>
<path d="M180.65 220.146C180.65 227.501 175.896 233.496 170.031 233.496C164.166 233.496 159.412 227.501 159.412 220.146C159.412 212.792 164.166 206.797 170.031 206.797C175.896 206.797 180.65 212.792 180.65 220.146Z" fill="#CB803A" stroke="#CB803A" stroke-linecap="round" stroke-linejoin="round"/>
<path d="M201.333 201.914C201.333 211.865 194.356 219.961 185.775 219.961C177.193 219.961 170.216 211.926 170.216 201.914C170.216 191.902 177.193 183.929 185.775 183.929C194.356 183.929 201.333 191.964 201.333 201.914Z" fill="#F5EFD7" stroke="#CB803A" stroke-linecap="round" stroke-linejoin="round"/>
<path d="M170.957 201.914C170.957 211.865 163.981 219.961 155.399 219.961C146.817 219.961 139.84 211.926 139.84 201.914C139.84 191.902 146.817 183.929 155.399 183.929C163.981 183.929 170.957 191.964 170.957 201.914Z" fill="#F5EFD7" stroke="#CB803A" stroke-linecap="round" stroke-linejoin="round"/>
<path d="M184.972 190.171C184.972 198.329 178.366 205.004 170.154 205.004C161.943 205.004 155.337 198.391 155.337 190.171C155.337 181.951 161.943 182.817 170.154 182.817C178.366 182.817 184.972 182.013 184.972 190.171Z" fill="#CB803A" stroke="#CB803A" stroke-linecap="round" stroke-linejoin="round"/>
<path d="M90.5718 107.168C70.2595 128.058 56.3681 178.243 98.5362 178.243C152.929 178.243 160.893 94.313 141.137 86.0931C121.38 77.9349 105.513 91.8409 90.5718 107.168Z" fill="#CB803A" stroke="#CB803A" stroke-linecap="round" stroke-linejoin="round"/>
<path d="M247.576 107.168C267.888 128.058 281.78 178.243 239.611 178.243C185.219 178.243 177.254 94.313 197.011 86.0931C216.768 77.9349 232.635 91.8409 247.576 107.168Z" fill="#CB803A" stroke="#CB803A" stroke-linecap="round" stroke-linejoin="round"/>
<path d="M231.277 131.395C231.277 136.525 227.14 140.666 222.016 140.666C216.891 140.666 212.755 136.525 212.755 131.395C212.755 126.266 216.891 122.125 222.016 122.125C227.14 122.125 231.277 126.266 231.277 131.395Z" fill="#F5EFD7" stroke="#CB803A" stroke-linecap="round" stroke-linejoin="round"/>
<path d="M128.356 129.85C128.356 135.784 123.541 140.604 117.614 140.604C111.687 140.604 106.871 135.784 106.871 129.85C106.871 123.917 111.687 119.096 117.614 119.096C123.541 119.096 128.356 123.917 128.356 129.85Z" fill="#F5EFD7" stroke="#CB803A" stroke-linecap="round" stroke-linejoin="round"/>
<path d="M281.347 37.4533C281.347 28.8007 274.371 21.8169 265.727 21.8169C260.788 21.8169 256.404 24.1036 253.564 27.6882C249.922 26.0813 246.094 24.7216 242.143 23.5474C245.415 11.7428 256.219 3.09021 269.061 3.09021C284.496 3.09021 297.029 15.6364 297.029 31.0875C297.029 40.9761 291.905 49.6905 284.126 54.6348C282.52 51.6682 280.668 48.9488 278.631 46.3531C280.359 43.8191 281.409 40.7907 281.409 37.4533H281.347Z" fill="#CB803A" stroke="#CB803A" stroke-linecap="round" stroke-linejoin="round"/>
<path d="M265.727 21.8169C274.371 21.8169 281.347 28.8008 281.347 37.4533C281.347 40.7289 280.298 43.8192 278.569 46.3531C272.148 38.3186 263.566 32.1382 253.564 27.6883C256.404 24.1036 260.788 21.8169 265.727 21.8169Z" fill="#CB803A" stroke="#CB803A" stroke-linecap="round" stroke-linejoin="round"/>
</svg>
